<svg width="24" height="24" viewBox="0 0 24 24" fill="none" xmlns="http://www.w3.org/2000/svg">
<path fill-rule="evenodd" clip-rule="evenodd" d="M7 4.74997C6.68351 4.74997 6.3742 4.7739 6.07284 4.82292C3.07211 5.23218 1.25 7.64565 1.25 10.8198V16.1801C1.25 17.9248 1.79355 19.4433 2.81262 20.5358C3.83918 21.6364 5.2991 22.25 7 22.25H17C18.7009 22.25 20.1608 21.6364 21.1874 20.5358C22.2065 19.4433 22.75 17.9248 22.75 16.1801V16.1382C22.5808 16.2105 22.3974 16.25 22.2059 16.25H18.6765C17.3364 16.25 16.25 15.0188 16.25 13.5C16.25 11.9812 17.3364 10.75 18.6765 10.75H22.2059C22.3974 10.75 22.5808 10.7895 22.75 10.8617V10.8198C22.75 7.62364 20.8967 5.19935 17.868 4.81217C17.5676 4.76043 17.2713 4.74997 17 4.74997H7ZM18.6765 14.75C18.0673 14.75 17.5735 14.1903 17.5735 13.5C17.5735 12.8096 18.0673 12.25 18.6765 12.25H22.2059C22.3277 12.25 22.4265 12.3619 22.4265 12.5V14.5C22.4265 14.638 22.3277 14.75 22.2059 14.75H18.6765Z" fill="#1E2022"/>
<path d="M2.5874 5.72074C3.41604 4.70469 4.60308 4.02337 6.07291 3.82291C6.37426 3.77389 6.68358 3.74995 7.00007 3.74995H17.0001C17.2713 3.74995 17.5677 3.76041 17.8681 3.81215C18.6855 3.91666 19.4174 4.16956 20.0503 4.54598L20.0048 4.13573C19.767 1.98978 17.9177 0.354473 15.7911 0.590079L5.94659 1.68078C3.93353 1.90382 2.52981 3.70838 2.5874 5.72074Z" fill="#1E2022"/>
</svg>
