<svg width="24" height="24" viewBox="0 0 24 24" fill="none" xmlns="http://www.w3.org/2000/svg">
<path d="M21.51 12.88V14.83C21.51 15.03 21.5 15.23 21.49 15.43C21.3 18.92 19.35 20.68 15.65 20.68H7.85C7.61 20.68 7.37 20.66 7.14 20.63C3.96 20.42 2.26 18.72 2.05 15.54C2.02 15.31 2 15.07 2 14.83V12.88C2 10.87 3.22 9.14 4.96 8.39C5.56 8.14 6.2 8 6.88 8H16.64C17.13 8 17.61 8.07 18.05 8.2C20.04 8.81 21.51 10.67 21.51 12.88Z" stroke="#1E2022" stroke-width="1.5" stroke-linecap="round" stroke-linejoin="round"/>
<path d="M12.66 1.51814L12.63 1.58814L9.72996 8.31814H6.87996C6.19996 8.31814 5.54996 8.45814 4.95996 8.70814L6.70996 4.52814L6.74996 4.42814L6.81996 4.26814C6.83996 4.20814 6.85996 4.14814 6.88996 4.09814C8.19996 1.06814 9.67996 0.378136 12.66 1.51814Z" stroke="#1E2022" stroke-width="1.5" stroke-linecap="round" stroke-linejoin="round"/>
<path d="M18.05 8.51813C17.6 8.37813 17.12 8.31813 16.64 8.31813H9.72998L12.63 1.58813L12.66 1.51813C12.81 1.56813 12.95 1.63813 13.1 1.69813L15.31 2.62813C16.54 3.13813 17.4 3.66813 17.92 4.30813C18.02 4.42813 18.1 4.53813 18.17 4.66813C18.26 4.80813 18.33 4.94813 18.37 5.09813C18.41 5.18813 18.44 5.27813 18.46 5.35813C18.73 6.19813 18.57 7.22813 18.05 8.51813Z" stroke="#1E2022" stroke-width="1.5" stroke-linecap="round" stroke-linejoin="round"/>
<path d="M6.71 4.52814L4.96 8.70814C3.22 9.45814 2 11.1881 2 13.1981V10.2681C2 7.42814 4.02 5.05814 6.71 4.52814Z" stroke="#1E2022" stroke-width="1.5" stroke-linecap="round" stroke-linejoin="round"/>
<path d="M21.5186 10.2677V13.1977C21.5186 10.9977 20.0586 9.12766 18.0586 8.52766C18.5786 7.22766 18.7286 6.20766 18.4786 5.35766C18.4586 5.26766 18.4286 5.17766 18.3886 5.09766C20.2486 6.05766 21.5186 8.02766 21.5186 10.2677Z" stroke="#1E2022" stroke-width="1.5" stroke-linecap="round" stroke-linejoin="round"/>
<path d="M6 14V17H9" stroke="#1E2022" stroke-width="1.5" stroke-linecap="round" stroke-linejoin="round"/>
<path d="M10 13L6 17" stroke="#1E2022" stroke-width="1.5" stroke-linecap="round" stroke-linejoin="round"/>
<path d="M17 15V12H14" stroke="#1E2022" stroke-width="1.5" stroke-linecap="round" stroke-linejoin="round"/>
<path d="M13 16L17 12" stroke="#1E2022" stroke-width="1.5" stroke-linecap="round" stroke-linejoin="round"/>
</svg>
