<svg width="24" height="24" viewBox="0 0 24 24" fill="none" xmlns="http://www.w3.org/2000/svg">
<path d="M22 10.8334V16.1667C22 19.3667 20 21.5 17 21.5H7C4 21.5 2 19.3667 2 16.1667V10.8334C2 7.93203 3.64 5.90536 6.19 5.56403C6.45 5.52136 6.72 5.50003 7 5.50003H17C17.26 5.50003 17.51 5.51068 17.75 5.55335C20.33 5.87335 22 7.9107 22 10.8334Z" stroke="#1E2022" stroke-width="1.5" stroke-linecap="round" stroke-linejoin="round"/>
<path d="M3.35658 6.9803C3.15964 5.20283 4.35617 3.61165 6.02908 3.4263L15.8736 2.3356C17.5465 2.15025 19.0623 3.44092 19.2593 5.2184L19.3484 6.023" stroke="#1E2022" stroke-width="1.5"/>
<path d="M18 11.5H21.1429C21.6162 11.5 22 11.8838 22 12.3572V14.6429C22 15.1163 21.6162 15.5 21.1429 15.5H18C16.8954 15.5 16 14.6046 16 13.5C16 12.3955 16.8954 11.5 18 11.5Z" stroke="#1E2022" stroke-width="1.5" stroke-linecap="round"/>
</svg>
